# xmcd
#
# Track frame offsets:
#	150
#	11231
#	23162
#	38604
#	52030
#	66401
#	77441
#	95116
#	109926
#	125167
#	140082
#	153838
#	168522
#	181479
#	200844
#	217413
#
# Disc length: 3143
#
# Revision: 3
# Processed by: cddbd v1.5.1PL0 Copyright (c) Steve Scherf et al.
# Submitted via: ExactAudioCopy v0.90b4
# Normalized: r2:DSETVAR1
#
DISCID=f50c4510
DTITLE=Various Artist - Classic Country Volume 2
DYEAR=2003
DGENRE=Country
TTITLE0=Rodney Crowell - Above And Beyond
TTITLE1=Ronnie McDowell - Older Women
TTITLE2=Johnny Duncan - Thinking Of A Rendezvous
TTITLE3=B.J. Thomas - New Looks From An Old Lover
TTITLE4=Johnny Paycheck - I'm The Only Hell
TTITLE5=Vern Gosdin - Set 'Em Up Joe
TTITLE6=Charlie Rich - My Elusive Dreams
TTITLE7=George Jones - Who's Gonna Fill Their Shoes
TTITLE8=Ricky Van Shelton - Life Turned Her That Way
TTITLE9=Mickey Gilley - Fool For Your Love
TTITLE10=George Jones and Tammy Wynette - Golden Ring
TTITLE11=The O'Kanes - Just Lovin' You
TTITLE12=Janie Fricke - Your Heart's Not In It
TTITLE13=Merle Haggard - Are The Good Times Really Over
TTITLE14=Exile - Hang On To Your Heart
TTITLE15=Johnny Cash - One Piece At A Time
EXTD=
EXTT0=
EXTT1=
EXTT2=
EXTT3=
EXTT4=
EXTT5=
EXTT6=
EXTT7=
EXTT8=
EXTT9=
EXTT10=
EXTT11=
EXTT12=
EXTT13=
EXTT14=
EXTT15=
PLAYORDER=
